<svg xmlns="http://www.w3.org/2000/svg" viewBox="0 0 22 22"><defs><style>.cls-1{fill:#f4f4f4;}.cls-2{fill:#124d6d;}</style></defs><title>ICONS</title><g id="timeSpin"><path class="cls-1" d="M15.3,17.65A6.12,6.12,0,0,1,5.65,10.3,1,1,0,0,1,5.89,10c.11-.07.31-.14.4-.08s.12.27.1.39a1.58,1.58,0,0,1-.21.41,5.49,5.49,0,1,0,9.28-.64c-.15-.22-.54-.48-.16-.73s.53.18.69.42A6.07,6.07,0,0,1,15.3,17.65Z"/><path class="cls-1" d="M8.86,15a2.57,2.57,0,0,1-.48-2.38c0-.17.27-.28.42-.42.06.18.21.38.18.55A2.12,2.12,0,0,0,9.81,15,2.09,2.09,0,0,0,13,12.9c0-.18.13-.37.2-.56.14.16.38.29.42.47a2.69,2.69,0,0,1-1.42,2.92A2.86,2.86,0,0,1,8.86,15Z"/><rect class="cls-2" x="5.93" y="4.49" width="10.13" height="2.31" rx="1.16" ry="1.16"/><path class="cls-2" d="M11.29,12.75,15,7.93a.37.37,0,0,0-.29-.59H7.29A.37.37,0,0,0,7,7.93l3.71,4.82A.37.37,0,0,0,11.29,12.75Z"/></g></svg>